<mxfile host="app.diagrams.net" modified="2024-03-03T11:46:49.900Z" agent="Mozilla/5.0 (Windows NT 10.0; Win64; x64) AppleWebKit/537.36 (KHTML, like Gecko) Chrome/122.0.0.0 Safari/537.36" version="23.1.8" etag="BLfWc8uRX8jA1YIZutpZ" type="github">
  <diagram name="Page-1" id="Yzl3N8pKvQ0pY-97Gcgt">
    <mxGraphModel>
      <root>
        <mxCell id="0" />
        <mxCell id="1" parent="0" />
      </root>
    </mxGraphModel>
  </diagram>
</mxfile>
